# Blender v2.76 (sub 0) OBJ File: 'tree.blend'
# www.blender.org
mtllib evergreen.mtl
o Cylinder_Cylinder.001
v 0.091896 -1.699489 -1.208531
v 0.091896 3.008601 -0.224642
v 0.799002 -1.699489 -0.915638
v 0.100917 3.008601 -0.219923
v 1.091896 -1.699489 -0.208531
v 0.104654 3.008601 -0.208531
v 0.799002 -1.699489 0.498576
v 0.100917 3.008601 -0.197139
v 0.091896 -1.699489 0.791469
v 0.091896 3.008601 -0.192421
v -0.615211 -1.699489 0.498575
v 0.082874 3.008601 -0.197139
v -0.908104 -1.699489 -0.208531
v 0.079137 3.008601 -0.208531
v -0.615211 -1.699489 -0.915638
v 0.082874 3.008601 -0.219923
v 0.091896 0.691737 -0.766062
v 0.486048 0.691737 -0.602765
v 0.649312 0.691737 -0.208531
v 0.486048 0.691737 0.185703
v 0.091896 0.691737 0.349000
v -0.302257 0.691737 0.185703
v -0.465521 0.691737 -0.208531
v -0.302257 0.691737 -0.602765
v 0.110959 2.206288 -0.406932
v 0.276563 2.292377 -0.323950
v 0.353055 2.292377 -0.190718
v 0.276563 2.292377 -0.057486
v 0.091896 2.292377 -0.002299
v -0.092772 2.292377 -0.057486
v -0.169264 2.292377 -0.208531
v -0.092772 2.292377 -0.393335
v 0.385010 1.463753 -0.501753
v 0.506422 1.463753 -0.208531
v 0.385010 1.463753 0.084691
v 0.091896 1.463753 0.206148
v -0.201219 1.463753 0.084691
v -0.322631 1.463753 -0.208531
v -0.201219 1.463753 -0.501753
v 0.091896 1.463753 -0.623210
v 0.700440 -0.946389 -0.817101
v 0.952507 -0.946389 -0.208531
v 0.700440 -0.946389 0.400039
v 0.091896 -0.946389 0.652116
v -0.516649 -0.946389 0.400038
v -0.768716 -0.946389 -0.208531
v -0.516649 -0.946389 -0.817101
v 0.091896 -0.946389 -1.069179
v 0.091896 -0.066407 -0.906348
v 0.585271 -0.066407 -0.701962
v 0.789634 -0.066407 -0.208531
v 0.585271 -0.066407 0.284900
v 0.091896 -0.066407 0.489286
v -0.401480 -0.066407 0.284900
v -0.605843 -0.066407 -0.208531
v -0.401480 -0.066407 -0.701962
v 0.156406 2.290289 -0.595222
v 0.440195 2.157532 -0.346114
v 0.600439 2.097394 -0.180344
v 0.421902 2.190386 0.023947
v 0.108491 2.226011 0.114534
v -0.160199 2.270174 -0.059559
v -0.315077 2.292377 -0.208531
v -0.195878 2.292377 -0.464545
v 0.091896 1.463753 -0.713827
v 0.538388 1.354718 -0.612528
v 0.683781 1.354718 -0.208531
v 0.538388 1.354718 0.195465
v 0.091896 1.463753 0.296765
v -0.319837 1.463753 0.148767
v -0.490382 1.463753 -0.208531
v -0.319837 1.463753 -0.565829
v 0.610621 0.658157 -0.678473
v 0.808053 0.677086 -0.189565
v 0.585970 0.704598 0.288233
v 0.074464 0.724576 0.475033
v -0.426830 0.725318 0.261410
v -0.624262 0.706389 -0.227498
v -0.402179 0.678877 -0.705295
v 0.109327 0.658899 -0.892096
v 0.091896 -0.066407 -1.040770
v 0.751064 -0.066407 -0.797013
v 1.024100 -0.066407 -0.208531
v 0.751064 -0.066407 0.379950
v 0.123368 -0.066407 0.562452
v -0.598745 -0.066407 0.441206
v -0.840309 -0.066407 -0.208531
v -0.567272 -0.066407 -0.797013
v 0.847058 -0.946389 -0.937454
v 1.159856 -0.946389 -0.208531
v 0.847058 -0.946389 0.520392
v 0.091896 -0.946389 0.822321
v -0.663267 -0.946389 0.520391
v -0.976065 -0.946389 -0.208531
v -0.663267 -0.946389 -0.937454
v 0.091896 -0.946389 -1.239384
v 0.929085 -1.698613 -1.061405
v 1.196733 -1.371508 -0.208531
v 0.929085 -1.698613 0.644343
v 0.091896 -1.698613 0.997615
v -0.745294 -1.698613 0.644343
v -1.092068 -1.698613 -0.208531
v -0.745294 -1.698613 -1.061405
v 0.091896 -1.698613 -1.414677
v 0.030821 -2.385604 -0.533478
v 0.030821 -1.570914 -0.533478
v 0.188840 -2.385604 -0.482217
v 0.188840 -1.570914 -0.482217
v 0.286501 -2.385604 -0.348014
v 0.286501 -1.570914 -0.348014
v 0.286501 -2.385604 -0.182129
v 0.286501 -1.570914 -0.182129
v 0.188840 -2.385604 -0.047926
v 0.188840 -1.570914 -0.047926
v 0.030821 -2.385604 0.003335
v 0.030821 -1.570914 0.003335
v -0.127197 -2.385604 -0.047926
v -0.127197 -1.570914 -0.047926
v -0.224858 -2.385604 -0.182129
v -0.224858 -1.570914 -0.182129
v -0.224858 -2.385604 -0.348014
v -0.224858 -1.570914 -0.348014
v -0.127197 -2.385604 -0.482217
v -0.127197 -1.570914 -0.482217
vn 0.698500 0.373000 -0.610700
vn 0.739400 0.381200 -0.555000
vn 0.772100 0.431800 0.466300
vn 0.300900 0.355400 0.885000
vn -0.479000 0.311200 0.820800
vn -0.642600 0.346200 0.683500
vn 0.000000 1.000000 -0.000000
vn -0.317400 0.413400 -0.853400
vn -0.813200 0.445900 -0.373900
vn 0.000000 -1.000000 0.000000
vn -0.837300 0.400900 -0.371700
vn -0.340100 0.331600 -0.880000
vn -0.842600 0.428100 0.326700
vn -0.233700 0.324300 0.916600
vn 0.305500 0.302500 0.902900
vn 0.837300 0.400900 0.371700
vn 0.837300 0.400900 -0.371700
vn 0.340100 0.331600 -0.880000
vn -0.860400 0.325400 -0.392100
vn -0.199700 0.314400 -0.928000
vn -0.848400 0.332000 0.412300
vn -0.306000 0.315800 0.898100
vn 0.280000 0.323900 0.903700
vn 0.875100 0.321800 0.361400
vn 0.871200 0.334100 -0.359800
vn 0.281600 0.356400 -0.890900
vn 0.371100 0.299200 -0.879100
vn 0.872900 0.325100 -0.363700
vn 0.865100 0.335000 0.373400
vn 0.345800 0.320400 0.881900
vn -0.367500 0.323400 0.872000
vn -0.872300 0.344100 0.347300
vn -0.334300 0.303700 -0.892200
vn -0.855900 0.335700 -0.393300
vn 0.356100 0.387500 -0.850300
vn 0.825700 0.411700 -0.385800
vn 0.825700 0.411700 0.385800
vn 0.356100 0.387500 0.850300
vn -0.356100 0.387500 0.850300
vn -0.858800 0.372300 0.351900
vn -0.356100 0.387500 -0.850300
vn -0.858800 0.372300 -0.351900
vn 0.354100 0.334800 -0.873200
vn 0.860100 0.357500 -0.363900
vn 0.860100 0.357500 0.363900
vn 0.354100 0.334800 0.873200
vn -0.354100 0.334800 0.873200
vn -0.860100 0.357500 0.363900
vn -0.354100 0.334800 -0.873200
vn -0.860100 0.357500 -0.363900
vn -0.216000 -0.942000 -0.256900
vn 0.103800 -0.982800 -0.152800
vn 0.195300 -0.816400 -0.543500
vn -0.212800 -0.823700 -0.525600
vn -0.560200 -0.803300 -0.202000
vn -0.588300 -0.744400 0.316000
vn -0.160200 -0.984000 0.078500
vn -0.231900 -0.918400 0.320600
vn -0.495400 -0.847700 0.189600
vn -0.495400 -0.847700 -0.189600
vn -0.231900 -0.918400 -0.320600
vn -0.018000 -0.999600 0.023600
vn 0.047600 -0.982600 0.179300
vn -0.151100 -0.985000 0.082800
vn -0.103700 -0.964100 0.244400
vn -0.004700 -1.000000 -0.001900
vn -0.001800 -1.000000 -0.004300
vn -0.004700 -1.000000 0.001900
vn -0.001800 -1.000000 0.004300
vn 0.001800 -1.000000 0.004300
vn 0.772500 -0.617500 0.148100
vn 0.772500 -0.617500 -0.148100
vn 0.001800 -1.000000 -0.004300
vn 0.308600 0.000000 -0.951200
vn 0.808600 0.000000 -0.588400
vn 1.000000 0.000000 0.000000
vn 0.808600 0.000000 0.588400
vn 0.308600 0.000000 0.951200
vn -0.308600 0.000000 0.951200
vn -0.808600 0.000000 0.588400
vn -1.000000 0.000000 0.000000
vn -0.308600 0.000000 -0.951200
vn -0.808600 0.000000 -0.588400
usemtl None
s off
f 57//1 2//1 4//1 58//1
f 58//2 4//2 6//2 59//2
f 59//3 6//3 8//3 60//3
f 60//4 8//4 10//4 61//4
f 61//5 10//5 12//5 62//5
f 62//6 12//6 14//6 63//6
f 4//7 2//7 16//7 14//7 12//7 10//7 8//7 6//7
f 64//8 16//8 2//8 57//8
f 63//9 14//9 16//9 64//9
f 1//10 3//10 5//10 7//10 9//10 11//10 13//10 15//10
f 87//11 23//11 24//11 88//11
f 88//12 24//12 17//12 81//12
f 86//13 22//13 23//13 87//13
f 85//14 21//14 22//14 86//14
f 84//15 20//15 21//15 85//15
f 83//16 19//16 20//16 84//16
f 82//17 18//17 19//17 83//17
f 81//18 17//18 18//18 82//18
f 71//19 31//19 32//19 72//19
f 72//20 32//20 25//20 65//20
f 70//21 30//21 31//21 71//21
f 69//22 29//22 30//22 70//22
f 68//23 28//23 29//23 69//23
f 67//24 27//24 28//24 68//24
f 66//25 26//25 27//25 67//25
f 65//26 25//26 26//26 66//26
f 80//27 40//27 33//27 73//27
f 73//28 33//28 34//28 74//28
f 74//29 34//29 35//29 75//29
f 75//30 35//30 36//30 76//30
f 76//31 36//31 37//31 77//31
f 77//32 37//32 38//32 78//32
f 79//33 39//33 40//33 80//33
f 78//34 38//34 39//34 79//34
f 104//35 48//35 41//35 97//35
f 97//36 41//36 42//36 98//36
f 98//37 42//37 43//37 99//37
f 99//38 43//38 44//38 100//38
f 100//39 44//39 45//39 101//39
f 101//40 45//40 46//40 102//40
f 103//41 47//41 48//41 104//41
f 102//42 46//42 47//42 103//42
f 96//43 49//43 50//43 89//43
f 89//44 50//44 51//44 90//44
f 90//45 51//45 52//45 91//45
f 91//46 52//46 53//46 92//46
f 92//47 53//47 54//47 93//47
f 93//48 54//48 55//48 94//48
f 95//49 56//49 49//49 96//49
f 94//50 55//50 56//50 95//50
f 31//10 63//10 64//10 32//10
f 32//51 64//51 57//51 25//51
f 30//52 62//52 63//52 31//52
f 29//53 61//53 62//53 30//53
f 28//54 60//54 61//54 29//54
f 27//55 59//55 60//55 28//55
f 26//56 58//56 59//56 27//56
f 25//57 57//57 58//57 26//57
f 40//58 65//58 66//58 33//58
f 33//59 66//59 67//59 34//59
f 34//60 67//60 68//60 35//60
f 35//61 68//61 69//61 36//61
f 36//10 69//10 70//10 37//10
f 37//10 70//10 71//10 38//10
f 39//10 72//10 65//10 40//10
f 38//10 71//10 72//10 39//10
f 23//62 78//62 79//62 24//62
f 24//63 79//63 80//63 17//63
f 22//64 77//64 78//64 23//64
f 21//65 76//65 77//65 22//65
f 20//63 75//63 76//63 21//63
f 19//62 74//62 75//62 20//62
f 18//64 73//64 74//64 19//64
f 17//65 80//65 73//65 18//65
f 49//10 81//10 82//10 50//10
f 50//10 82//10 83//10 51//10
f 51//10 83//10 84//10 52//10
f 52//10 84//10 85//10 53//10
f 53//10 85//10 86//10 54//10
f 54//10 86//10 87//10 55//10
f 56//10 88//10 81//10 49//10
f 55//10 87//10 88//10 56//10
f 46//10 94//10 95//10 47//10
f 47//10 95//10 96//10 48//10
f 45//10 93//10 94//10 46//10
f 44//10 92//10 93//10 45//10
f 43//10 91//10 92//10 44//10
f 42//10 90//10 91//10 43//10
f 41//10 89//10 90//10 42//10
f 48//10 96//10 89//10 41//10
f 13//66 102//66 103//66 15//66
f 15//67 103//67 104//67 1//67
f 11//68 101//68 102//68 13//68
f 9//69 100//69 101//69 11//69
f 7//70 99//70 100//70 9//70
f 5//71 98//71 99//71 7//71
f 3//72 97//72 98//72 5//72
f 1//73 104//73 97//73 3//73
f 105//74 106//74 108//74 107//74
f 107//75 108//75 110//75 109//75
f 109//76 110//76 112//76 111//76
f 111//77 112//77 114//77 113//77
f 113//78 114//78 116//78 115//78
f 115//79 116//79 118//79 117//79
f 117//80 118//80 120//80 119//80
f 119//81 120//81 122//81 121//81
f 108//7 106//7 124//7 122//7 120//7 118//7 116//7 114//7 112//7 110//7
f 123//82 124//82 106//82 105//82
f 121//83 122//83 124//83 123//83
f 105//10 107//10 109//10 111//10 113//10 115//10 117//10 119//10 121//10 123//10
